<?xml version="1.0" encoding="UTF-8" standalone="no"?>
<svg
   xmlns:dc="http://purl.org/dc/elements/1.1/"
   xmlns:cc="http://creativecommons.org/ns#"
   xmlns:rdf="http://www.w3.org/1999/02/22-rdf-syntax-ns#"
   xmlns:svg="http://www.w3.org/2000/svg"
   xmlns="http://www.w3.org/2000/svg"
   xmlns:sodipodi="http://sodipodi.sourceforge.net/DTD/sodipodi-0.dtd"
   xmlns:inkscape="http://www.inkscape.org/namespaces/inkscape"
   sodipodi:docname="logo.svg"
   inkscape:version="1.0 (4035a4fb49, 2020-05-01)"
   id="svg8"
   version="1.1"
   viewBox="0 0 379.04395 66.648684"
   height="66.648682mm"
   width="379.04395mm">
  <defs
     id="defs2" />
  <sodipodi:namedview
     inkscape:window-maximized="1"
     inkscape:window-y="-9"
     inkscape:window-x="-9"
     inkscape:window-height="1361"
     inkscape:window-width="3440"
     fit-margin-bottom="0"
     fit-margin-right="0"
     fit-margin-left="0"
     fit-margin-top="0"
     showgrid="false"
     inkscape:document-rotation="0"
     inkscape:current-layer="g24"
     inkscape:document-units="mm"
     inkscape:cy="219.00829"
     inkscape:cx="367.76678"
     inkscape:zoom="1"
     inkscape:pageshadow="2"
     inkscape:pageopacity="0.0"
     borderopacity="1.0"
     bordercolor="#666666"
     pagecolor="#ffffff"
     id="base" />
  <metadata
     id="metadata5">
    <rdf:RDF>
      <cc:Work
         rdf:about="">
        <dc:format>image/svg+xml</dc:format>
        <dc:type
           rdf:resource="http://purl.org/dc/dcmitype/StillImage" />
        <dc:title></dc:title>
      </cc:Work>
    </rdf:RDF>
  </metadata>
  <g
     transform="translate(207.49394,140.71496)"
     id="layer1"
     inkscape:groupmode="layer"
     inkscape:label="Ebene 1">
    <g
       transform="translate(0.26726953,119.46948)"
       id="g24">
      <g
         transform="translate(-7.9375,-316.97083)"
         id="g930">
        <path
           sodipodi:nodetypes="csccccccccccccccccccccccsscccscccsssscsssscccssssccccccscccsssssssssccccccccccsscsscccssscccccccccccccsssscssscsssscssssssssssccccccccc"
           style="fill:#fe4e01;fill-opacity:0.933333;stroke-width:0.264583"
           d="m -56.527044,120.47621 c -1.41929,-0.44154 -2.43194,-1.33029 -3.24131,-2.84475 l -0.59515,-1.11362 -0.13229,-17.727093 -0.13229,-17.72708 -1.65365,-0.0788 -1.65364,-0.0788 v -4.47267 -4.47266 l 1.65364,-0.0788 1.65365,-0.0788 0.0716,-5.35781 0.0716,-5.35781 h 5.68306 5.68307 v 5.42396 5.42396 h 1.71979 1.71979 v 4.49791 4.49792 h -1.71979 -1.71979 l 0.004,14.88281 c 0.003,11.433553 0.0811,15.036113 0.33716,15.544273 0.282,0.55972 0.54696,0.6738 1.72271,0.74167 l 1.38945,0.0802 -0.073,4.01906 -0.073,4.01905 -1.71979,0.32016 c -2.34976,0.43742 -7.5041,0.40167 -8.99584,-0.0624 z m 19.73786,-0.2471 c -2.63926,-1.08505 -3.99509,-2.86117 -5.05474,-6.62169 -0.66874,-2.37322 -0.84976,-10.70498 -0.2903,-13.36146 0.86212,-4.093613 3.03035,-6.959113 6.45555,-8.531563 0.97543,-0.4478 3.73804,-1.49589 6.13913,-2.32908 l 4.36563,-1.51489 0.0739,-3.47936 c 0.0857,-4.0349 -0.22108,-5.07509 -1.70549,-5.78296 -1.09637,-0.52282 -2.04207,-0.24933 -2.8393,0.82112 -0.43767,0.58767 -0.57607,1.22196 -0.64949,2.97656 l -0.0933,2.22976 h -5.81837 -5.81838 l 0.17652,-2.57969 c 0.49794,-7.2767 2.77173,-10.4872 8.49462,-11.99402 2.7715,-0.72972 8.44772,-0.81695 10.88456,-0.16727 5.3234,1.41927 8.63303,4.91318 9.32687,9.84618 0.15129,1.07565 0.2627,9.97696 0.26574,21.232823 l 0.005,19.38073 h -5.95312 -5.95313 l -0.0116,-2.97657 -0.0116,-2.97656 -0.86763,1.78877 c -1.68358,3.47099 -3.58727,4.69078 -7.31121,4.68466 -1.76915,-0.003 -2.58202,-0.14062 -3.81005,-0.64549 z m 10.6974,-9.01034 c 0.8977,-0.81241 1.05016,-2.26578 1.05016,-10.01132 0,-6.341203 -0.0608,-7.576073 -0.37288,-7.576073 -0.20508,0 -1.12386,0.50602 -2.04173,1.12448 -1.24966,0.84203 -1.83721,1.455 -2.3391,2.44033 -0.65278,1.28154 -0.67025,1.45747 -0.67025,6.746883 0,5.00259 0.0429,5.50402 0.54365,6.35647 0.29901,0.50899 0.83479,1.07762 1.19062,1.26361 0.7506,0.39232 2.00655,0.22846 2.63953,-0.34438 z M -113.67704,90.588667 v -29.76562 h 5.95312 5.95313 l 0.0216,13.29531 0.0216,13.29531 2.952016,-8.79739 2.95202,-8.7974 h 6.17235 6.17236 l -0.18292,0.57631 c -0.1006,0.31697 -1.81794,5.28783 -3.81631,11.04635 l -3.6334,10.47005 0.60983,1.71979 c 0.33541,0.94589 2.51116,7.347593 4.83502,14.226013 l 4.22518,12.50621 -6.36138,-0.0708 -6.36137,-0.0708 -3.68276,-11.63137 c -2.02551,-6.39726 -3.736996,-11.685623 -3.803286,-11.751913 -0.0663,-0.0663 -0.12053,5.197593 -0.12053,11.697523 v 11.81806 h -5.95311 -5.95312 z m 34.131246,4.49792 v -25.26771 h 5.95313 5.95312 v 25.26771 25.267713 h -5.95312 -5.95313 z m -66.583566,-15.80886 c -0.43303,-0.47294 -1.16467,-1.20386 -1.70649,-1.45521 -1.28046,-0.59399 -0.89049,-1.65364 -0.0415,-1.65364 0.70232,0 2.20876,1.0947 2.9894,2.17234 1.27463,1.75958 -0.31345,2.64518 -1.2414,0.93651 z m 16.23324,-7.74008 c -0.24453,-0.51279 -0.97866,-1.30879 -1.63139,-1.76888 l -1.18679,-0.83652 0.72124,-0.43862 c 0.81347,-0.4947 2.44102,-2.26339 2.44102,-2.65271 0,-0.53644 0.42872,-0.21845 0.90977,0.67481 0.27551,0.5116 1.01837,1.27291 1.65079,1.69181 l 1.14985,0.76164 -0.8923,0.52647 c -0.49077,0.28956 -1.22975,0.98676 -1.64217,1.54933 -0.41243,0.56257 -0.82312,1.11335 -0.91264,1.22394 -0.0895,0.1106 -0.36284,-0.21847 -0.60738,-0.73127 z m -40.08671,-6.162922 c -0.13752,-0.316064 -0.9814,-1.368728 -2.28052,-1.954254 -0.75297,-0.339372 -1.24106,-1.086451 -0.89805,-1.563765 0.73489,-1.02263 2.11823,-0.273375 3.20836,0.748604 1.65957,1.555818 2.77959,2.419772 2.38979,3.538601 -0.30152,0.865453 -1.64117,1.019957 -2.41958,-0.769186 z m 90.437036,-3.096468 v -4.10105 h 5.95313 5.95312 v 4.10105 4.10104 h -5.95312 -5.95313 z"
           id="path30-5-9" />
        <path
           style="fill:#000000;stroke-width:0.264583"
           d="m -183.06941,123.35707 c -0.3895,-0.0681 -1.232,-0.58484 -1.87221,-1.14838 -1.84359,-1.62279 -2.0498,-2.60447 -2.0498,-9.75817 v -5.99092 l -1.43299,-1.40552 c -1.77917,-1.74506 -2.84337,-3.86862 -3.00622,-5.998743 -0.11892,-1.55545 -0.44584,-2.36797 -0.8518,-2.11708 -0.11218,0.0693 -0.8888,-5.3e-4 -1.7258,-0.15526 -2.44009,-0.45108 -4.10845,-1.81496 -5.31164,-4.34225 -0.44697,-0.93885 -0.50384,-1.70051 -0.50384,-6.74687 0,-5.47021 0.024,-5.73424 0.62607,-6.87917 1.4781,-2.81096 3.77741,-4.09148 7.04996,-3.92622 l 2.02,0.102 -0.15864,-0.66757 c -0.3728,-1.56889 -0.46581,-5.36036 -0.16856,-6.87125 0.85534,-4.3476 4.03992,-8.11736 8.28181,-9.80362 1.45257,-0.57744 3.30902,-0.83032 4.99986,-0.86024 1.24513,-0.022 2.49038,0.21499 3.70199,0.50281 0.50705,0.12045 0.96904,0.32113 1.47837,0.50878 3.47226,1.27928 6.73514,5.12872 7.76777,9.10906 0.37412,1.44203 0.37499,5.01925 0.002,6.68521 -0.70263,3.13529 -3.6443,7.00865 -6.38447,8.40658 -1.15424,0.58885 -1.26971,1.0399 -0.57303,2.23842 0.40995,0.70525 0.44613,5.6403 0.46139,8.46667 0.0136,2.526934 0.15132,5.093127 -0.33073,7.573693 -0.14054,0.72324 -0.37742,1.44087 -0.73759,2.0836 -0.66608,1.18863 -1.45597,2.29082 -2.57446,3.175 l -1.50615,1.19062 -0.005,3.48772 -0.005,3.48771 0.80838,0.57562 c 2.90247,2.06674 2.79646,6.18018 -0.21379,8.29587 -1.06544,0.74881 -1.26763,0.79058 -4.0988,0.84666 -1.63795,0.0325 -3.29677,0.003 -3.68627,-0.0648 z m 7.21275,-2.9408 c 0.57532,-0.64436 0.77149,-1.12895 0.77149,-1.90578 0,-2.53601 -1.15087,-3.31557 -4.89479,-3.31557 -2.33727,0 -2.74535,0.071 -3.4991,0.6086 -1.83117,1.30612 -1.72115,4.16688 0.19837,5.15767 0.7522,0.38826 1.44097,0.46046 3.78601,0.39687 2.86394,-0.0777 2.86723,-0.0785 3.63802,-0.94179 z m -8.0294,-6.71275 c 0.16542,-0.16543 1.58822,-0.37379 3.16177,-0.46302 l 2.86099,-0.16225 v -2.64583 -2.64583 l -1.05833,0.12207 c -1.53868,0.17747 -3.2623,0.13716 -4.69636,-0.10983 l -1.25677,-0.21646 v 3.21096 c 0,3.25094 0.16431,3.73458 0.9887,2.91019 z m 4.51812,-8.07662 c 0.33661,-0.21337 0.84263,-0.92593 1.12448,-1.58346 0.4584,-1.06941 0.51184,-1.84208 0.50664,-7.325143 -0.005,-5.40314 -0.0641,-6.25806 -0.49792,-7.21322 -1.09008,-2.40025 -3.71076,-2.89473 -5.55776,-1.04866 l -0.94996,0.94949 -0.0857,6.67679 c -0.0894,6.964593 0.0504,8.228963 1.01672,9.195303 1.03616,1.03615 3.10328,1.19846 4.44353,0.3489 z m 4.90075,-2.80125 c 1.6998,-2.08215 2.02785,-3.728173 2.02785,-10.174833 0,-4.98779 -0.0643,-5.85485 -0.54492,-7.34237 -0.57477,-1.77911 -1.00779,-2.17466 -1.87347,-1.71136 -0.72799,0.38961 -4.51908,0.16511 -6.3559,-0.37638 -0.82404,-0.24292 -2.01466,-0.73691 -2.64584,-1.09773 -0.63116,-0.36083 -1.23688,-0.65749 -1.34602,-0.65925 -0.10914,-0.002 -0.19843,1.18744 -0.19843,2.64265 0,1.45521 0.0709,2.64583 0.15759,2.64583 0.0867,0 0.53316,-0.26789 0.99219,-0.59531 0.68894,-0.49142 1.18409,-0.59531 2.8373,-0.59531 2.32501,0 3.56472,0.52615 4.80559,2.33991 0,0 0.47372,0.69132 0.60004,1.09967 0.73627,2.38012 0.33073,7.47419 0.33073,7.47419 0,5.577213 -0.25133,7.474263 -0.0177,7.474473 0.17216,1.7e-4 0.72611,-0.50572 1.23101,-1.12418 z m -12.52423,-3.770313 c 0,-2.4011 -0.10449,-4.36563 -0.23219,-4.36563 -0.1277,0 -0.38692,0.18645 -0.57604,0.41432 -0.18912,0.22788 -0.67995,0.58813 -1.09073,0.80055 -0.67489,0.349 -0.74686,0.51946 -0.74674,1.76849 1.9e-4,1.99184 1.58868,5.747893 2.43087,5.747893 0.11816,0 0.21483,-1.96453 0.21483,-4.365623 z m -3.23589,-4.73084 c 2.6475,-1.68949 2.97281,-2.62808 2.96549,-8.55598 -0.006,-4.96375 -0.18161,-5.82964 -1.49799,-7.39183 -1.35185,-1.60428 -4.21678,-2.14548 -6.14637,-1.16108 -2.47686,1.2636 -3.19774,3.20473 -3.19774,8.61056 0,4.17215 0.3603,5.92657 1.49376,7.27361 1.58462,1.88322 4.48028,2.43883 6.38285,1.22472 z m 15.8036,-12.88575 c 1.29013,-0.34551 3.24579,-1.25216 3.46461,-1.6062 0.25583,-0.41395 -0.0241,-0.54307 -2.33819,-1.07837 -1.20162,-0.27797 -2.45286,-0.57057 -2.78054,-0.65024 -0.429,-0.1043 -0.82483,0.0791 -1.41395,0.65506 -1.8542,1.81283 -4.81795,1.19394 -5.91315,-1.23478 -0.93149,-2.06569 0.40302,-4.52973 2.65926,-4.91003 l 1.08638,-0.18312 1.13791,-2.95974 c 0.62585,-1.62786 1.35737,-3.45922 1.6256,-4.06971 0.26823,-0.61047 0.48769,-1.18779 0.48769,-1.28293 0,-0.0951 0.17273,-0.54814 0.38384,-1.0067 0.21111,-0.45855 0.62836,-1.48858 0.92722,-2.28894 0.508,-1.36045 0.51417,-1.47675 0.0948,-1.78594 -1.08272,-0.79819 -5.98493,-0.05 -8.0204,1.2241 -2.3953,1.49933 -4.12119,3.53655 -5.07311,5.98824 -0.49136,1.26549 -0.61544,2.09707 -0.61544,4.12469 0,1.3968 0.13811,2.82555 0.30691,3.175 0.16879,0.34945 0.58,1.23068 0.91379,1.95828 1.18744,2.58842 4.48428,5.30721 7.16112,5.90552 1.57976,0.3531 4.63374,0.36645 5.90569,0.0258 z m -4.77973,-3.9404 c 0.56849,-0.21615 0.67868,-0.42567 0.67868,-1.29052 0,-1.17573 -0.45993,-1.6926 -1.50618,-1.6926 -1.46855,0 -2.11967,2.01106 -0.94231,2.91042 0.52133,0.39823 0.87534,0.41277 1.76981,0.0727 z m 11.46773,-10.73718 c 0.32927,-0.302535 0.51204,-0.344774 0.52957,-0.945493 0.0301,-1.03248 -1.80519,-3.045553 -3.68159,-4.31107 -0.54397,-0.366874 -1.38021,-0.720984 -2.12609,-0.243677 -0.80163,0.512984 -0.93327,1.655932 0.77292,2.58663 0.74833,0.408202 1.86612,1.347289 2.26212,2.11623 0.67096,1.30285 1.36217,1.41439 2.24307,0.79738 z m 11.74534,55.991663 c -1.16323,-0.29537 -2.3661,-1.47913 -2.69084,-2.64808 -0.14378,-0.51759 -0.26209,-2.95279 -0.2629,-5.41156 l -0.001,-4.47048 -1.20647,-1.28981 c -1.38014,-1.47549 -1.967,-2.69809 -2.20125,-4.5859 -0.14442,-1.16389 -0.24367,-1.33149 -0.82561,-1.39427 -1.8901,-0.2039 -2.50056,-0.43468 -3.4725,-1.31277 -1.71277,-1.54739 -1.90883,-2.138433 -2.03532,-6.135633 -0.0708,-2.23698 0.007,-4.0827 0.20918,-4.98784 0.61189,-2.73424 3.05097,-4.50047 5.84426,-4.23207 1.27333,0.12235 1.33993,0.0983 1.18825,-0.4289 -0.0884,-0.30718 -0.23303,-1.34755 -0.32147,-2.31193 -0.41793,-4.55767 2.60542,-8.95199 7.09791,-10.31654 4.85815,-1.47562 10.30012,0.867147 12.53774,5.412407 0.80397,1.63309 0.86628,1.99714 0.86623,4.41105 -5e-5,2.41391 -0.43019,2.672553 -1.09038,4.017143 -0.89016,1.81283 -2.69546,3.883 -3.99777,4.58435 -1.09494,0.58966 -1.08452,0.54611 -0.53365,2.23029 0.33633,1.02828 0.40062,2.27228 0.33073,6.399723 -0.10123,5.97837 -0.32126,6.73681 -2.57911,8.89035 l -1.3441,1.282 v 2.55941 c 0,2.24871 0.0614,2.59225 0.50551,2.82995 0.81254,0.43486 1.61115,1.96687 1.61115,3.09073 0,1.34475 -0.76772,2.74697 -1.85273,3.38396 -0.97142,0.57031 -4.26469,0.81803 -5.77538,0.43442 z m 5.35895,-2.11497 c 0.93754,-0.88077 0.9391,-2.33073 0.003,-3.20971 -0.5605,-0.52656 -1.01292,-0.65404 -2.60686,-0.73453 -2.27677,-0.11497 -3.34784,0.31071 -3.85352,1.53153 -0.2686,0.64846 -0.26875,0.96365 -7.9e-4,1.61067 0.51198,1.23603 1.39962,1.59458 3.74568,1.51301 1.72802,-0.0601 2.13179,-0.16592 2.71198,-0.71097 z m -3.08865,-5.56362 1.65365,-0.0116 -8e-5,-1.91823 -8e-5,-1.91823 -2.64575,-0.006 -2.64576,-0.006 v 2.28986 2.28987 l 0.99219,-0.35408 c 0.5457,-0.19474 1.73633,-0.35931 2.64583,-0.36571 z m 0.54098,-5.74154 c 0.9719,-0.61338 1.11267,-1.43372 1.11267,-6.48429 0,-5.217693 -0.21922,-6.224483 -1.48041,-6.799123 -1.07195,-0.48841 -1.89524,-0.35087 -2.8149,0.47025 l -0.86407,0.77149 -0.0817,5.164683 c -0.0917,5.79597 0.0717,6.5209 1.62018,7.1904 0.89448,0.38673 1.52336,0.30815 2.50823,-0.31341 z m 3.41685,-1.74455 c 1.43016,-1.5641 1.53228,-2.07983 1.53228,-7.739063 0,-3.67873 -0.10223,-5.53361 -0.3354,-6.08542 l -0.33539,-0.79375 h -2.57502 c -2.34772,0 -2.73268,-0.0747 -4.36097,-0.84599 l -1.78593,-0.846 v 1.97585 1.97586 l 1.10494,-0.5637 c 1.97233,-1.00621 4.37823,-0.25616 5.44749,1.69828 0.39394,0.72007 0.45902,1.61744 0.45902,6.328823 0,3.01938 0.0685,5.48993 0.15232,5.4901 0.0838,1.8e-4 0.39727,-0.26757 0.69666,-0.59499 z m -9.2941,-6.21821 c -0.0702,-0.0702 -0.49271,0.15422 -0.93895,0.49869 -0.75775,0.58491 -0.80579,0.72369 -0.72723,2.10069 0.0602,1.05567 0.30571,1.84466 0.86437,2.77812 l 0.78027,1.30373 0.0746,-3.27681 c 0.041,-1.80225 0.0171,-3.33424 -0.053,-3.40442 z m -1.9789,-0.66623 c 1.55475,-1.038643 1.82424,-1.946633 1.82424,-6.146293 0,-2.99905 -0.0881,-3.87944 -0.4626,-4.62493 -1.47365,-2.9331 -5.66118,-2.83669 -6.98714,0.16088 -0.47276,1.06875 -0.52477,1.64839 -0.44444,4.95388 0.0773,3.18152 0.16863,3.85832 0.60823,4.50834 1.20325,1.779163 3.72392,2.309043 5.46171,1.148123 z m 13.00371,-9.973113 c 0.69123,-0.32839 1.25677,-0.68126 1.25677,-0.78415 0,-0.19424 -3.51674,-1.08692 -4.25847,-1.08096 -0.23211,0.002 -0.63141,0.23477 -0.88733,0.51756 -1.15519,1.27647 -3.56932,0.75145 -4.27143,-0.92893 -0.23495,-0.56232 -0.33409,-1.27379 -0.23828,-1.71002 0.21217,-0.96601 1.36015,-2.10855 2.11857,-2.10855 0.32614,0 0.70769,-0.14883 0.84788,-0.33073 0.52564,-0.68202 3.79154,-9.48852 3.6211,-9.7643 -0.30843,-0.49906 -4.04559,-0.11811 -5.4612,0.55669 -1.72167,0.8207 -3.29488,2.42247 -4.13058,4.20556 -0.93227,1.98915 -0.98833,5.08792 -0.12602,6.96676 0.66656,1.45234 2.49655,3.52108 3.64391,4.11934 2.45626,1.28073 5.62002,1.41785 7.88508,0.34173 z m -5.04848,-2.45703 c 0.69673,-0.56137 0.77644,-1.22934 0.21384,-1.79194 -0.65699,-0.65699 -0.91951,-0.65599 -1.5815,0.006 -0.29104,0.29104 -0.52917,0.64822 -0.52917,0.79375 0,0.31628 0.96815,1.32291 1.27235,1.32291 0.1177,0 0.39872,-0.14883 0.62448,-0.33073 z m 8.90075,-8.71299 c 0.1477,-1.27834 -2.90924,-3.99862 -4.01616,-3.57386 -0.80746,0.30985 -0.94352,1.30573 0.0481,1.95134 0.65117,0.42394 1.55683,1.19065 1.92467,1.66548 0.39588,0.51103 0.94121,0.77962 1.18419,0.76475 0.50799,-0.0311 0.79623,-0.26296 0.85917,-0.80771 z M 33.587856,120.88466 c -5.60652,-0.72696 -8.08639,-5.24136 -8.10964,-14.76287 -0.0147,-6.01812 0.87778,-9.213423 3.3375,-11.949213 1.49515,-1.66298 3.6439,-2.73441 9.61786,-4.79576 l 4.36562,-1.50639 0.0738,-3.45981 c 0.0871,-4.08673 -0.19376,-5.08168 -1.62766,-5.76546 -0.7595,-0.36218 -1.05584,-0.38396 -1.684,-0.12377 -1.23082,0.50982 -1.65689,1.53127 -1.65689,3.97217 v 2.14199 h -5.85715 -5.85715 l 0.13786,-3.10886 c 0.21518,-4.85217 1.52788,-7.83915 4.26038,-9.69423 1.80203,-1.22339 4.06195,-1.94248 7.23228,-2.30125 5.80149,-0.65652 10.44889,0.52839 13.68977,3.49038 1.6515,1.50939 2.90753,3.78568 3.32594,6.02767 0.1633,0.87495 0.26599,9.12351 0.26599,21.365113 v 19.93993 h -5.95313 -5.95312 l -0.0106,-2.84428 -0.0106,-2.84427 -0.79981,1.5875 c -1.8865,3.74447 -4.59957,5.17441 -8.78728,4.63141 z m 8.25866,-9.61361 c 0.97191,-0.80593 1.08497,-1.82988 1.08497,-9.82596 0,-4.297543 -0.0635,-7.813713 -0.14108,-7.813713 -0.0776,0 -0.71023,0.28841 -1.40586,0.64091 -1.62661,0.82426 -3.10666,2.46999 -3.48502,3.87515 -0.45928,1.7056 -0.24459,11.570743 0.26946,12.382633 0.7735,1.22165 2.64348,1.59843 3.67753,0.74098 z m 25.56598,9.58983 c -4.17265,-0.62766 -6.21626,-2.85483 -7.16382,-7.80736 -0.31496,-1.64613 -0.38385,-5.70591 -0.38385,-22.620423 v -20.61422 h 5.95311 5.95315 l 0.003,19.51302 c 0,12.611633 0.0982,19.861183 0.27485,20.497413 0.33869,1.21944 1.12172,1.79374 2.44575,1.79374 1.36938,0 2.00073,-0.3856 2.52585,-1.54266 0.39602,-0.87264 0.44857,-2.95876 0.51932,-20.616203 l 0.0787,-19.64531 h 5.94053 5.94056 v 25.26771 25.267713 h -5.9435 -5.94354 l -0.0757,-2.57969 -0.0757,-2.57969 -0.89938,1.6585 c -1.07598,1.98426 -2.5387,3.37813 -3.91429,3.73012 -1.67267,0.42799 -3.56521,0.52828 -5.23349,0.27734 z m 35.288564,0.0112 c -3.205934,-0.3705 -5.180704,-2.00404 -5.775514,-4.77757 -0.18505,-0.86284 -0.28363,-7.20384 -0.28363,-18.242853 v -16.92031 h -1.71979 -1.71979 v -4.48529 -4.48529 l 1.65364,-0.0788 1.65365,-0.0788 0.0716,-5.35781 0.0716,-5.35781 h 5.815364 5.81535 v 5.42396 5.42396 h 1.71979 1.7198 v 4.49791 4.49792 h -1.7198 -1.71979 v 15.33653 15.336513 l 0.5679,0.30394 c 0.31237,0.16716 1.08921,0.24518 1.72633,0.17336 l 1.15845,-0.13057 -0.0727,4.13233 -0.0727,4.13232 -1.71979,0.30043 c -2.57905,0.45052 -5.21774,0.58149 -7.17002,0.35588 z m 24.45782,0.005 c -5.98276,-0.63071 -9.56546,-3.68217 -11.07368,-9.43165 -0.80865,-3.08258 -0.96161,-6.46723 -0.8536,-18.888763 0.11427,-13.14594 0.13705,-13.38667 1.54458,-16.31989 0.80547,-1.67857 3.46477,-4.27454 5.26574,-5.14035 2.57778,-1.23924 4.573,-1.62929 8.33437,-1.62929 6.57296,0 10.53809,1.90846 12.8061,6.16369 1.43269,2.68799 1.60546,4.05896 1.60978,12.77521 l 0.004,7.87134 h -8.86355 -8.86354 l 0.005,5.093233 c 0.006,5.72027 0.30289,8.48426 1.01642,9.45886 0.65159,0.89006 2.1141,1.24837 3.22207,0.78942 1.31628,-0.5452 1.60917,-1.60103 1.77575,-6.4014 l 0.14491,-4.17761 h 5.81565 5.8157 l -0.14001,4.29948 c -0.19413,5.96046 -1.21926,9.32328 -3.64398,11.95379 -2.53296,2.74797 -8.14573,4.19286 -13.92192,3.58392 z m 5.85083,-34.786163 c -0.0145,-4.93623 -0.1657,-5.91713 -1.07997,-7.00366 -0.54322,-0.6456 -0.87974,-0.80154 -1.72961,-0.80154 -1.44023,0 -2.4334,1.00597 -2.83308,2.86962 -0.32356,1.50869 -0.41436,8.83212 -0.11324,9.13324 0.10165,0.10164 1.44111,0.15125 2.97656,0.11024 l 2.79175,-0.0746 -0.0124,-4.23334 z m -141.1428043,8.99586 v -25.26771 h 5.94498 5.94498 l 0.0743,3.24115 0.0743,3.24114 0.59639,-1.61762 c 0.6981,-1.89348 2.32311,-3.85489 3.86761,-4.66824 0.87835,-0.46255 1.53269,-0.57356 3.3412103,-0.56687 2.58012,0.01 3.86427,0.35339 5.58222,1.49467 1.49575,0.99366 2.7327,2.76028 3.49426,4.99052 0.57178,1.67445 0.57799,1.89272 0.65549,23.05556 l 0.0782,21.365103 h -5.96344 -5.9634403 v -19.72459 c 0,-16.981983 -0.055,-19.830913 -0.39536,-20.489153 -0.89311,-1.72706 -2.81174,-2.12819 -4.08573,-0.8542 -1.26833,1.26833 -1.33974,2.47488 -1.33974,22.634933 v 18.43301 h -5.95312 -5.95313 z m 157.6916743,0 v -25.26771 h 5.95313 5.95312 l 0.006,3.24115 0.006,3.24114 0.63476,-1.54385 c 1.80036,-4.37868 4.49528,-5.96303 8.90421,-5.23491 4.09985,0.67708 6.28298,2.72527 7.56928,7.10142 0.40272,1.3702 0.45921,3.72614 0.54237,22.62994 l 0.0928,21.100523 h -5.9676 -5.96759 v -19.58766 c 0,-16.153193 -0.0647,-19.742483 -0.36894,-20.470633 -0.96451,-2.30845 -3.6145,-2.35 -4.85809,-0.0762 -0.42527,0.77755 -0.46734,2.38702 -0.53576,20.489143 l -0.0742,19.64531 h -5.94503 -5.94502 V 95.086737 Z m -279.67114,-19.06723 c -0.14191,-0.37327 -0.26064,-0.81975 -0.26384,-0.99218 -0.0114,-0.61703 -1.09631,-2.70793 -1.7717,-3.41466 -0.4211,-0.44063 -1.49855,-0.98985 -2.77743,-1.41576 -1.81668,-0.60501 -2.07887,-0.77008 -2.0084,-1.26447 0.0645,-0.45222 0.47599,-0.69456 2.0104,-1.18387 2.55233,-0.81391 3.55623,-1.80941 4.30256,-4.26655 0.87253,-2.87259 1.72812,-3.10225 2.35041,-0.63089 0.73481,2.91816 1.76165,3.99267 4.72385,4.94314 1.39787,0.44852 1.79239,0.69109 1.85655,1.1415 0.0709,0.49761 -0.16923,0.65108 -1.84743,1.18073 -2.72096,0.85875 -3.70206,1.81669 -4.58936,4.48099 -0.55401,1.66355 -0.80656,2.10071 -1.21358,2.10071 -0.30828,0 -0.61726,-0.27162 -0.77203,-0.67869 z m 1.92124,-4.8996 c 0.39823,-0.56206 1.22513,-1.27755 1.83755,-1.58998 l 1.11349,-0.56807 -0.77922,-0.39602 c -1.09643,-0.55723 -2.40705,-1.8548 -2.77798,-2.7503 -0.17291,-0.41745 -0.40456,-0.75901 -0.51478,-0.75901 -0.11021,0 -0.34186,0.34156 -0.51478,0.75901 -0.36502,0.88125 -1.67769,2.19144 -2.73071,2.72554 l -0.73195,0.37125 1.38353,0.91637 c 0.91568,0.6065 1.56581,1.29039 1.92257,2.02243 0.44002,0.90284 0.58766,1.03115 0.80363,0.69838 0.14553,-0.22422 0.59041,-0.86754 0.98865,-1.4296 z"
           id="path26-8-5"
           sodipodi:nodetypes="csscsssssscscsssaasscssaaascccsssccssssssssscccsscsscsccscssccsscssscssssssssssssssssscssssscssscsscssssscssssssccsssssscsssssccccssssscsscsssssssscscssccccsscscccsccccccsccsssscsssscscsscccssssscsssccccsscsssssscsssssssssssssssssssssssssscscsssscccsssssscccccsssscssssscscccccsssscccccccccssccscscccccccccccccccccccccsscccssscscsssscccccssscccssccsccsssccsccscccsscssscccsssscccccsscccsssscccsssscccccsssscssssssssssscssssscsssssc" />
      </g>
    </g>
  </g>
</svg>
